# Tiled2Unity generated file. Do not modify by hand.
# Wavefront file for 'Carcel_mesh_0015.obj'

# Vertices (Count = 36)
v -256 -384 0
v -288 -384 0
v -288 -352 0
v -256 -352 0
v -288 -416 0
v -320 -416 0
v -320 -384 0
v -288 -384 0
v -288 -448 0
v -320 -448 0
v -320 -416 0
v -288 -416 0
v -320 -544 0
v -352 -544 0
v -352 -512 0
v -320 -512 0
v -320 -576 0
v -352 -576 0
v -352 -544 0
v -320 -544 0
v -1088 -704 0
v -1120 -704 0
v -1120 -672 0
v -1088 -672 0
v -1120 -704 0
v -1152 -704 0
v -1152 -672 0
v -1120 -672 0
v -1088 -736 0
v -1120 -736 0
v -1120 -704 0
v -1088 -704 0
v -1120 -736 0
v -1152 -736 0
v -1152 -704 0
v -1120 -704 0

# Texture cooridinates (Count = 21)
vt 0.25 0.9375
vt 0.3125 0.9375
vt 0.3125 1
vt 0.25 1
vt 0.1875 0.9375
vt 0.1875 1
vt 0.1875 0.875
vt 0.25 0.875
vt 0.1875 0.8125
vt 0.25 0.8125
vt 0.0625 0.625
vt 0.125 0.625
vt 0.125 0.6875
vt 0.0625 0.6875
vt 0 0.75
vt 0.0625 0.75
vt 0.0625 0.8125
vt 0 0.8125
vt 0.125 0.75
vt 0.125 0.8125
vt 0 0.6875

# Normal
vn 0 0 -1

# Mesh description
g Carcel_mesh_0015

# Faces
f 1/1/1 2/2/1 3/3/1 4/4/1
f 5/5/1 6/1/1 7/4/1 8/6/1
f 9/7/1 10/8/1 11/1/1 12/5/1
f 13/9/1 14/10/1 15/8/1 16/7/1
f 17/11/1 18/12/1 19/13/1 20/14/1
f 21/15/1 22/16/1 23/17/1 24/18/1
f 25/16/1 26/19/1 27/20/1 28/17/1
f 29/21/1 30/14/1 31/16/1 32/15/1
f 33/14/1 34/13/1 35/19/1 36/16/1

