# Tiled2Unity generated file. Do not modify by hand.
# Wavefront file for 'Carcel_mesh_0007.obj'

# Vertices (Count = 88)
v -1152 -416 0
v -1184 -416 0
v -1184 -384 0
v -1152 -384 0
v -1184 -416 0
v -1216 -416 0
v -1216 -384 0
v -1184 -384 0
v -1152 -448 0
v -1184 -448 0
v -1184 -416 0
v -1152 -416 0
v -1184 -448 0
v -1216 -448 0
v -1216 -416 0
v -1184 -416 0
v -448 -544 0
v -480 -544 0
v -480 -512 0
v -448 -512 0
v -704 -544 0
v -736 -544 0
v -736 -512 0
v -704 -512 0
v -736 -544 0
v -768 -544 0
v -768 -512 0
v -736 -512 0
v -1152 -544 0
v -1184 -544 0
v -1184 -512 0
v -1152 -512 0
v -448 -576 0
v -480 -576 0
v -480 -544 0
v -448 -544 0
v -704 -576 0
v -736 -576 0
v -736 -544 0
v -704 -544 0
v -736 -576 0
v -768 -576 0
v -768 -544 0
v -736 -544 0
v -1152 -576 0
v -1184 -576 0
v -1184 -544 0
v -1152 -544 0
v -384 -704 0
v -416 -704 0
v -416 -672 0
v -384 -672 0
v -416 -704 0
v -448 -704 0
v -448 -672 0
v -416 -672 0
v -704 -704 0
v -736 -704 0
v -736 -672 0
v -704 -672 0
v -736 -704 0
v -768 -704 0
v -768 -672 0
v -736 -672 0
v -1152 -704 0
v -1184 -704 0
v -1184 -672 0
v -1152 -672 0
v -384 -736 0
v -416 -736 0
v -416 -704 0
v -384 -704 0
v -416 -736 0
v -448 -736 0
v -448 -704 0
v -416 -704 0
v -704 -736 0
v -736 -736 0
v -736 -704 0
v -704 -704 0
v -736 -736 0
v -768 -736 0
v -768 -704 0
v -736 -704 0
v -1152 -736 0
v -1184 -736 0
v -1184 -704 0
v -1152 -704 0

# Texture cooridinates (Count = 15)
vt 0.3555556 0.5492958
vt 0.4266667 0.5492958
vt 0.4266667 1
vt 0.3555556 1
vt 0.4977778 0.5492958
vt 0.4977778 1
vt 0.3555556 0.09859157
vt 0.4266667 0.09859157
vt 0.4977778 0.09859157
vt 0.64 0.5492958
vt 0.7111111 0.5492958
vt 0.7111111 1
vt 0.64 1
vt 0.64 0.09859157
vt 0.7111111 0.09859157

# Normal
vn 0 0 -1

# Mesh description
g Carcel_mesh_0007

# Faces
f 1/1/1 2/2/1 3/3/1 4/4/1
f 5/2/1 6/5/1 7/6/1 8/3/1
f 9/7/1 10/8/1 11/2/1 12/1/1
f 13/8/1 14/9/1 15/5/1 16/2/1
f 17/10/1 18/11/1 19/12/1 20/13/1
f 21/1/1 22/2/1 23/3/1 24/4/1
f 25/2/1 26/5/1 27/6/1 28/3/1
f 29/10/1 30/11/1 31/12/1 32/13/1
f 33/14/1 34/15/1 35/11/1 36/10/1
f 37/7/1 38/8/1 39/2/1 40/1/1
f 41/8/1 42/9/1 43/5/1 44/2/1
f 45/14/1 46/15/1 47/11/1 48/10/1
f 49/1/1 50/2/1 51/3/1 52/4/1
f 53/2/1 54/5/1 55/6/1 56/3/1
f 57/1/1 58/2/1 59/3/1 60/4/1
f 61/2/1 62/5/1 63/6/1 64/3/1
f 65/10/1 66/11/1 67/12/1 68/13/1
f 69/7/1 70/8/1 71/2/1 72/1/1
f 73/8/1 74/9/1 75/5/1 76/2/1
f 77/7/1 78/8/1 79/2/1 80/1/1
f 81/8/1 82/9/1 83/5/1 84/2/1
f 85/14/1 86/15/1 87/11/1 88/10/1

