# Tiled2Unity generated file. Do not modify by hand.
# Wavefront file for 'Carcel_mesh_0005.obj'

# Vertices (Count = 56)
v -128 -64 0
v -160 -64 0
v -160 -32 0
v -128 -32 0
v -352 -64 0
v -384 -64 0
v -384 -32 0
v -352 -32 0
v -736 -64 0
v -768 -64 0
v -768 -32 0
v -736 -32 0
v -928 -64 0
v -960 -64 0
v -960 -32 0
v -928 -32 0
v -64 -320 0
v -96 -320 0
v -96 -288 0
v -64 -288 0
v -448 -320 0
v -480 -320 0
v -480 -288 0
v -448 -288 0
v -160 -448 0
v -192 -448 0
v -192 -416 0
v -160 -416 0
v -320 -448 0
v -352 -448 0
v -352 -416 0
v -320 -416 0
v -640 -448 0
v -672 -448 0
v -672 -416 0
v -640 -416 0
v -992 -448 0
v -1024 -448 0
v -1024 -416 0
v -992 -416 0
v -160 -480 0
v -192 -480 0
v -192 -448 0
v -160 -448 0
v -192 -480 0
v -224 -480 0
v -224 -448 0
v -192 -448 0
v -224 -480 0
v -256 -480 0
v -256 -448 0
v -224 -448 0
v -672 -736 0
v -704 -736 0
v -704 -704 0
v -672 -704 0

# Texture cooridinates (Count = 24)
vt 0.75 0.75
vt 0.8125 0.75
vt 0.8125 0.8125
vt 0.75 0.8125
vt 0.9375 0.6875
vt 1 0.6875
vt 1 0.75
vt 0.9375 0.75
vt 0.875 0.75
vt 0.875 0.8125
vt 0.75 0.6875
vt 0.8125 0.6875
vt 0.75 0.125
vt 0.8125 0.125
vt 0.8125 0.1875
vt 0.75 0.1875
vt 0.875 0.25
vt 0.9375 0.25
vt 0.9375 0.3125
vt 0.875 0.3125
vt 0.75 0.25
vt 0.8125 0.25
vt 0.8125 0.3125
vt 0.75 0.3125

# Normal
vn 0 0 -1

# Mesh description
g Carcel_mesh_0005

# Faces
f 1/1/1 2/2/1 3/3/1 4/4/1
f 5/5/1 6/6/1 7/7/1 8/8/1
f 9/2/1 10/9/1 11/10/1 12/3/1
f 13/1/1 14/2/1 15/3/1 16/4/1
f 17/1/1 18/2/1 19/3/1 20/4/1
f 21/2/1 22/9/1 23/10/1 24/3/1
f 25/11/1 26/12/1 27/2/1 28/1/1
f 29/5/1 30/6/1 31/7/1 32/8/1
f 33/11/1 34/12/1 35/2/1 36/1/1
f 37/11/1 38/12/1 39/2/1 40/1/1
f 41/13/1 42/14/1 43/15/1 44/16/1
f 45/17/1 46/18/1 47/19/1 48/20/1
f 49/21/1 50/22/1 51/23/1 52/24/1
f 53/1/1 54/2/1 55/3/1 56/4/1

