# Tiled2Unity generated file. Do not modify by hand.
# Wavefront file for 'Carcel_mesh_0016.obj'

# Vertices (Count = 148)
v -288 -192 0
v -320 -192 0
v -320 -160 0
v -288 -160 0
v -480 -192 0
v -512 -192 0
v -512 -160 0
v -480 -160 0
v -672 -192 0
v -704 -192 0
v -704 -160 0
v -672 -160 0
v -864 -192 0
v -896 -192 0
v -896 -160 0
v -864 -160 0
v -1056 -192 0
v -1088 -192 0
v -1088 -160 0
v -1056 -160 0
v -448 -448 0
v -480 -448 0
v -480 -416 0
v -448 -416 0
v -704 -448 0
v -736 -448 0
v -736 -416 0
v -704 -416 0
v -960 -448 0
v -992 -448 0
v -992 -416 0
v -960 -416 0
v -384 -576 0
v -416 -576 0
v -416 -544 0
v -384 -544 0
v -416 -576 0
v -448 -576 0
v -448 -544 0
v -416 -544 0
v -1024 -576 0
v -1056 -576 0
v -1056 -544 0
v -1024 -544 0
v -960 -640 0
v -992 -640 0
v -992 -608 0
v -960 -608 0
v -832 -704 0
v -864 -704 0
v -864 -672 0
v -832 -672 0
v -864 -704 0
v -896 -704 0
v -896 -672 0
v -864 -672 0
v -832 -736 0
v -864 -736 0
v -864 -704 0
v -832 -704 0
v -864 -736 0
v -896 -736 0
v -896 -704 0
v -864 -704 0
v -384 -800 0
v -416 -800 0
v -416 -768 0
v -384 -768 0
v -416 -800 0
v -448 -800 0
v -448 -768 0
v -416 -768 0
v -704 -800 0
v -736 -800 0
v -736 -768 0
v -704 -768 0
v -736 -800 0
v -768 -800 0
v -768 -768 0
v -736 -768 0
v -800 -800 0
v -832 -800 0
v -832 -768 0
v -800 -768 0
v -832 -800 0
v -864 -800 0
v -864 -768 0
v -832 -768 0
v -672 -832 0
v -704 -832 0
v -704 -800 0
v -672 -800 0
v -704 -832 0
v -736 -832 0
v -736 -800 0
v -704 -800 0
v -736 -832 0
v -768 -832 0
v -768 -800 0
v -736 -800 0
v -800 -832 0
v -832 -832 0
v -832 -800 0
v -800 -800 0
v -832 -832 0
v -864 -832 0
v -864 -800 0
v -832 -800 0
v -864 -832 0
v -896 -832 0
v -896 -800 0
v -864 -800 0
v -704 -864 0
v -736 -864 0
v -736 -832 0
v -704 -832 0
v -736 -864 0
v -768 -864 0
v -768 -832 0
v -736 -832 0
v -800 -864 0
v -832 -864 0
v -832 -832 0
v -800 -832 0
v -832 -864 0
v -864 -864 0
v -864 -832 0
v -832 -832 0
v -352 -928 0
v -384 -928 0
v -384 -896 0
v -352 -896 0
v -448 -928 0
v -480 -928 0
v -480 -896 0
v -448 -896 0
v -704 -928 0
v -736 -928 0
v -736 -896 0
v -704 -896 0
v -832 -928 0
v -864 -928 0
v -864 -896 0
v -832 -896 0
v -1152 -928 0
v -1184 -928 0
v -1184 -896 0
v -1152 -896 0

# Texture cooridinates (Count = 46)
vt 0.8125 0.875
vt 0.875 0.875
vt 0.875 0.9375
vt 0.8125 0.9375
vt 0.75 0.5625
vt 0.8125 0.5625
vt 0.8125 0.625
vt 0.75 0.625
vt 0.875 0.5625
vt 0.875 0.625
vt 0.9375 0.9375
vt 1 0.9375
vt 1 1
vt 0.9375 1
vt 0.625 0.8125
vt 0.6875 0.8125
vt 0.6875 0.875
vt 0.625 0.875
vt 0.75 0.8125
vt 0.75 0.875
vt 0.625 0.75
vt 0.6875 0.75
vt 0.75 0.75
vt 0.4375 0.8125
vt 0.5 0.8125
vt 0.5 0.875
vt 0.4375 0.875
vt 0 0.6875
vt 0.0625 0.6875
vt 0.0625 0.75
vt 0 0.75
vt 0.125 0.6875
vt 0.1875 0.6875
vt 0.1875 0.75
vt 0.125 0.75
vt 0.25 0.5625
vt 0.3125 0.5625
vt 0.3125 0.625
vt 0.25 0.625
vt 0.375 0.5625
vt 0.375 0.625
vt 0.25 0.6875
vt 0.25 0.75
vt 0.75 0.9375
vt 0.8125 1
vt 0.75 1

# Normal
vn 0 0 -1

# Mesh description
g Carcel_mesh_0016

# Faces
f 1/1/1 2/2/1 3/3/1 4/4/1
f 5/1/1 6/2/1 7/3/1 8/4/1
f 9/1/1 10/2/1 11/3/1 12/4/1
f 13/1/1 14/2/1 15/3/1 16/4/1
f 17/1/1 18/2/1 19/3/1 20/4/1
f 21/1/1 22/2/1 23/3/1 24/4/1
f 25/1/1 26/2/1 27/3/1 28/4/1
f 29/1/1 30/2/1 31/3/1 32/4/1
f 33/5/1 34/6/1 35/7/1 36/8/1
f 37/6/1 38/9/1 39/10/1 40/7/1
f 41/11/1 42/12/1 43/13/1 44/14/1
f 45/1/1 46/2/1 47/3/1 48/4/1
f 49/15/1 50/16/1 51/17/1 52/18/1
f 53/16/1 54/19/1 55/20/1 56/17/1
f 57/21/1 58/22/1 59/16/1 60/15/1
f 61/22/1 62/23/1 63/19/1 64/16/1
f 65/24/1 66/25/1 67/26/1 68/27/1
f 69/24/1 70/25/1 71/26/1 72/27/1
f 73/28/1 74/29/1 75/30/1 76/31/1
f 77/28/1 78/29/1 79/30/1 80/31/1
f 81/28/1 82/29/1 83/30/1 84/31/1
f 85/28/1 86/29/1 87/30/1 88/31/1
f 89/32/1 90/33/1 91/34/1 92/35/1
f 93/36/1 94/37/1 95/38/1 96/39/1
f 97/37/1 98/40/1 99/41/1 100/38/1
f 101/36/1 102/37/1 103/38/1 104/39/1
f 105/37/1 106/40/1 107/41/1 108/38/1
f 109/33/1 110/42/1 111/43/1 112/34/1
f 113/29/1 114/32/1 115/35/1 116/30/1
f 117/29/1 118/32/1 119/35/1 120/30/1
f 121/29/1 122/32/1 123/35/1 124/30/1
f 125/29/1 126/32/1 127/35/1 128/30/1
f 129/44/1 130/4/1 131/45/1 132/46/1
f 133/44/1 134/4/1 135/45/1 136/46/1
f 137/44/1 138/4/1 139/45/1 140/46/1
f 141/44/1 142/4/1 143/45/1 144/46/1
f 145/44/1 146/4/1 147/45/1 148/46/1

