# Tiled2Unity generated file. Do not modify by hand.
# Wavefront file for 'Carcel_mesh_0020.obj'

# Vertices (Count = 28)
v -960 -896 0
v -992 -896 0
v -992 -864 0
v -960 -864 0
v -992 -896 0
v -1024 -896 0
v -1024 -864 0
v -992 -864 0
v -1024 -896 0
v -1056 -896 0
v -1056 -864 0
v -1024 -864 0
v -960 -928 0
v -992 -928 0
v -992 -896 0
v -960 -896 0
v -1024 -928 0
v -1056 -928 0
v -1056 -896 0
v -1024 -896 0
v -960 -960 0
v -992 -960 0
v -992 -928 0
v -960 -928 0
v -1024 -960 0
v -1056 -960 0
v -1056 -928 0
v -1024 -928 0

# Texture cooridinates (Count = 12)
vt 0 0.4375
vt 0.0625 0.4375
vt 0.0625 0.5
vt 0 0.5
vt 0.125 0.4375
vt 0.125 0.5
vt 0.1875 0.4375
vt 0.1875 0.5
vt 0 0.375
vt 0.0625 0.375
vt 0 0.3125
vt 0.0625 0.3125

# Normal
vn 0 0 -1

# Mesh description
g Carcel_mesh_0020

# Faces
f 1/1/1 2/2/1 3/3/1 4/4/1
f 5/2/1 6/5/1 7/6/1 8/3/1
f 9/5/1 10/7/1 11/8/1 12/6/1
f 13/9/1 14/10/1 15/2/1 16/1/1
f 17/9/1 18/10/1 19/2/1 20/1/1
f 21/11/1 22/12/1 23/10/1 24/9/1
f 25/11/1 26/12/1 27/10/1 28/9/1

