# Tiled2Unity generated file. Do not modify by hand.
# Wavefront file for 'Carcel_mesh_0018.obj'

# Vertices (Count = 84)
v -96 -256 0
v -128 -256 0
v -128 -224 0
v -96 -224 0
v -288 -256 0
v -320 -256 0
v -320 -224 0
v -288 -224 0
v -480 -256 0
v -512 -256 0
v -512 -224 0
v -480 -224 0
v -672 -256 0
v -704 -256 0
v -704 -224 0
v -672 -224 0
v -864 -256 0
v -896 -256 0
v -896 -224 0
v -864 -224 0
v -1056 -256 0
v -1088 -256 0
v -1088 -224 0
v -1056 -224 0
v -1088 -384 0
v -1120 -384 0
v -1120 -352 0
v -1088 -352 0
v -1216 -384 0
v -1248 -384 0
v -1248 -352 0
v -1216 -352 0
v -320 -576 0
v -352 -576 0
v -352 -544 0
v -320 -544 0
v -320 -608 0
v -352 -608 0
v -352 -576 0
v -320 -576 0
v -160 -640 0
v -192 -640 0
v -192 -608 0
v -160 -608 0
v -160 -672 0
v -192 -672 0
v -192 -640 0
v -160 -640 0
v -480 -672 0
v -512 -672 0
v -512 -640 0
v -480 -640 0
v -640 -672 0
v -672 -672 0
v -672 -640 0
v -640 -640 0
v -800 -672 0
v -832 -672 0
v -832 -640 0
v -800 -640 0
v -320 -864 0
v -352 -864 0
v -352 -832 0
v -320 -832 0
v -480 -864 0
v -512 -864 0
v -512 -832 0
v -480 -832 0
v -640 -864 0
v -672 -864 0
v -672 -832 0
v -640 -832 0
v -896 -864 0
v -928 -864 0
v -928 -832 0
v -896 -832 0
v -1088 -864 0
v -1120 -864 0
v -1120 -832 0
v -1088 -832 0
v -1216 -864 0
v -1248 -864 0
v -1248 -832 0
v -1216 -832 0

# Texture cooridinates (Count = 14)
vt 0.5882353 0.625
vt 0.6470588 0.625
vt 0.6470588 0.6875
vt 0.5882353 0.6875
vt 0.4705882 0.4375
vt 0.5294118 0.4375
vt 0.5294118 0.5
vt 0.4705882 0.5
vt 0.4705882 0.375
vt 0.5294118 0.375
vt 0.4117647 0.5
vt 0.4705882 0.5625
vt 0.4117647 0.5625
vt 0.4117647 0.4375

# Normal
vn 0 0 -1

# Mesh description
g Carcel_mesh_0018

# Faces
f 1/1/1 2/2/1 3/3/1 4/4/1
f 5/1/1 6/2/1 7/3/1 8/4/1
f 9/1/1 10/2/1 11/3/1 12/4/1
f 13/1/1 14/2/1 15/3/1 16/4/1
f 17/1/1 18/2/1 19/3/1 20/4/1
f 21/1/1 22/2/1 23/3/1 24/4/1
f 25/1/1 26/2/1 27/3/1 28/4/1
f 29/1/1 30/2/1 31/3/1 32/4/1
f 33/5/1 34/6/1 35/7/1 36/8/1
f 37/9/1 38/10/1 39/6/1 40/5/1
f 41/11/1 42/8/1 43/12/1 44/13/1
f 45/14/1 46/5/1 47/8/1 48/11/1
f 49/1/1 50/2/1 51/3/1 52/4/1
f 53/1/1 54/2/1 55/3/1 56/4/1
f 57/1/1 58/2/1 59/3/1 60/4/1
f 61/1/1 62/2/1 63/3/1 64/4/1
f 65/1/1 66/2/1 67/3/1 68/4/1
f 69/1/1 70/2/1 71/3/1 72/4/1
f 73/1/1 74/2/1 75/3/1 76/4/1
f 77/1/1 78/2/1 79/3/1 80/4/1
f 81/1/1 82/2/1 83/3/1 84/4/1

