# Tiled2Unity generated file. Do not modify by hand.
# Wavefront file for 'Carcel_mesh_0024.obj'

# Vertices (Count = 40)
v -640 -576 0
v -672 -576 0
v -672 -544 0
v -640 -544 0
v -800 -576 0
v -832 -576 0
v -832 -544 0
v -800 -544 0
v -640 -608 0
v -672 -608 0
v -672 -576 0
v -640 -576 0
v -800 -608 0
v -832 -608 0
v -832 -576 0
v -800 -576 0
v -640 -640 0
v -672 -640 0
v -672 -608 0
v -640 -608 0
v -800 -640 0
v -832 -640 0
v -832 -608 0
v -800 -608 0
v -1216 -640 0
v -1248 -640 0
v -1248 -608 0
v -1216 -608 0
v -1216 -672 0
v -1248 -672 0
v -1248 -640 0
v -1216 -640 0
v -1216 -800 0
v -1248 -800 0
v -1248 -768 0
v -1216 -768 0
v -1216 -832 0
v -1248 -832 0
v -1248 -800 0
v -1216 -800 0

# Texture cooridinates (Count = 9)
vt 0.125 0.9375
vt 0.1875 0.9375
vt 0.1875 1
vt 0.125 1
vt 0.25 0.9375
vt 0.25 1
vt 0.125 0.875
vt 0.1875 0.875
vt 0.25 0.875

# Normal
vn 0 0 -1

# Mesh description
g Carcel_mesh_0024

# Faces
f 1/1/1 2/2/1 3/3/1 4/4/1
f 5/2/1 6/5/1 7/6/1 8/3/1
f 9/1/1 10/2/1 11/3/1 12/4/1
f 13/2/1 14/5/1 15/6/1 16/3/1
f 17/7/1 18/8/1 19/2/1 20/1/1
f 21/8/1 22/9/1 23/5/1 24/2/1
f 25/2/1 26/5/1 27/6/1 28/3/1
f 29/8/1 30/9/1 31/5/1 32/2/1
f 33/2/1 34/5/1 35/6/1 36/3/1
f 37/8/1 38/9/1 39/5/1 40/2/1

