# Tiled2Unity generated file. Do not modify by hand.
# Wavefront file for 'Carcel_mesh_0012.obj'

# Vertices (Count = 128)
v -64 -32 0
v -96 -32 0
v -96 0 0
v -64 0 0
v -800 -32 0
v -832 -32 0
v -832 0 0
v -800 0 0
v -1216 -64 0
v -1248 -64 0
v -1248 -32 0
v -1216 -32 0
v -32 -96 0
v -64 -96 0
v -64 -64 0
v -32 -64 0
v -192 -96 0
v -224 -96 0
v -224 -64 0
v -192 -64 0
v -224 -96 0
v -256 -96 0
v -256 -64 0
v -224 -64 0
v -832 -96 0
v -864 -96 0
v -864 -64 0
v -832 -64 0
v -1024 -96 0
v -1056 -96 0
v -1056 -64 0
v -1024 -64 0
v -1216 -96 0
v -1248 -96 0
v -1248 -64 0
v -1216 -64 0
v -128 -192 0
v -160 -192 0
v -160 -160 0
v -128 -160 0
v -320 -192 0
v -352 -192 0
v -352 -160 0
v -320 -160 0
v -512 -192 0
v -544 -192 0
v -544 -160 0
v -512 -160 0
v -704 -192 0
v -736 -192 0
v -736 -160 0
v -704 -160 0
v -896 -192 0
v -928 -192 0
v -928 -160 0
v -896 -160 0
v -640 -320 0
v -672 -320 0
v -672 -288 0
v -640 -288 0
v -96 -352 0
v -128 -352 0
v -128 -320 0
v -96 -320 0
v -768 -352 0
v -800 -352 0
v -800 -320 0
v -768 -320 0
v -32 -384 0
v -64 -384 0
v -64 -352 0
v -32 -352 0
v -416 -448 0
v -448 -448 0
v -448 -416 0
v -416 -416 0
v -224 -480 0
v -256 -480 0
v -256 -448 0
v -224 -448 0
v -256 -480 0
v -288 -480 0
v -288 -448 0
v -256 -448 0
v -160 -512 0
v -192 -512 0
v -192 -480 0
v -160 -480 0
v -192 -512 0
v -224 -512 0
v -224 -480 0
v -192 -480 0
v -192 -544 0
v -224 -544 0
v -224 -512 0
v -192 -512 0
v -160 -576 0
v -192 -576 0
v -192 -544 0
v -160 -544 0
v -192 -576 0
v -224 -576 0
v -224 -544 0
v -192 -544 0
v -192 -608 0
v -224 -608 0
v -224 -576 0
v -192 -576 0
v -320 -608 0
v -352 -608 0
v -352 -576 0
v -320 -576 0
v -192 -640 0
v -224 -640 0
v -224 -608 0
v -192 -608 0
v -192 -672 0
v -224 -672 0
v -224 -640 0
v -192 -640 0
v -320 -672 0
v -352 -672 0
v -352 -640 0
v -320 -640 0
v -320 -800 0
v -352 -800 0
v -352 -768 0
v -320 -768 0

# Texture cooridinates (Count = 61)
vt 0.5625 0.9375
vt 0.625 0.9375
vt 0.625 1
vt 0.5625 1
vt 0.9375 0.75
vt 1 0.75
vt 1 0.8125
vt 0.9375 0.8125
vt 0.875 0.9375
vt 0.9375 0.9375
vt 0.9375 1
vt 0.875 1
vt 0.5 0.8125
vt 0.5625 0.8125
vt 0.5625 0.875
vt 0.5 0.875
vt 0 0.75
vt 0.0625 0.75
vt 0.0625 0.8125
vt 0 0.8125
vt 0.875 0.625
vt 0.9375 0.625
vt 0.9375 0.6875
vt 0.875 0.6875
vt 0.0625 0.875
vt 0 0.875
vt 0.875 0.875
vt 0.9375 0.875
vt 0.625 0.8125
vt 0.6875 0.8125
vt 0.6875 0.875
vt 0.625 0.875
vt 0.5 0.125
vt 0.5625 0.125
vt 0.5625 0.1875
vt 0.5 0.1875
vt 0.9375 0.25
vt 1 0.25
vt 1 0.3125
vt 0.9375 0.3125
vt 0.125 0.875
vt 0.125 0.9375
vt 0.0625 0.9375
vt 0.3125 0.125
vt 0.375 0.125
vt 0.375 0.1875
vt 0.3125 0.1875
vt 0.625 0.125
vt 0.6875 0.125
vt 0.6875 0.1875
vt 0.625 0.1875
vt 0.625 0.0625
vt 0.6875 0.0625
vt 0.5625 0.0625
vt 0.5 0.0625
vt 0.875 0.25
vt 0.875 0.3125
vt 0.6875 0
vt 0.75 0
vt 0.75 0.0625
vt 0.625 0

# Normal
vn 0 0 -1

# Mesh description
g Carcel_mesh_0012

# Faces
f 1/1/1 2/2/1 3/3/1 4/4/1
f 5/5/1 6/6/1 7/7/1 8/8/1
f 9/9/1 10/10/1 11/11/1 12/12/1
f 13/13/1 14/14/1 15/15/1 16/16/1
f 17/17/1 18/18/1 19/19/1 20/20/1
f 21/21/1 22/22/1 23/23/1 24/24/1
f 25/13/1 26/14/1 27/15/1 28/16/1
f 29/20/1 30/19/1 31/25/1 32/26/1
f 33/27/1 34/28/1 35/10/1 36/9/1
f 37/29/1 38/30/1 39/31/1 40/32/1
f 41/14/1 42/29/1 43/32/1 44/15/1
f 45/14/1 46/29/1 47/32/1 48/15/1
f 49/14/1 50/29/1 51/32/1 52/15/1
f 53/14/1 54/29/1 55/32/1 56/15/1
f 57/5/1 58/6/1 59/7/1 60/8/1
f 61/21/1 62/22/1 63/23/1 64/24/1
f 65/17/1 66/18/1 67/19/1 68/20/1
f 69/17/1 70/18/1 71/19/1 72/20/1
f 73/5/1 74/6/1 75/7/1 76/8/1
f 77/33/1 78/34/1 79/35/1 80/36/1
f 81/37/1 82/38/1 83/39/1 84/40/1
f 85/25/1 86/41/1 87/42/1 88/43/1
f 89/44/1 90/45/1 91/46/1 92/47/1
f 93/48/1 94/49/1 95/50/1 96/51/1
f 97/21/1 98/22/1 99/23/1 100/24/1
f 101/37/1 102/38/1 103/39/1 104/40/1
f 105/52/1 106/53/1 107/49/1 108/48/1
f 109/54/1 110/52/1 111/48/1 112/34/1
f 113/55/1 114/54/1 115/34/1 116/33/1
f 117/56/1 118/37/1 119/40/1 120/57/1
f 121/58/1 122/59/1 123/60/1 124/53/1
f 125/61/1 126/58/1 127/53/1 128/52/1

